<?xml version="1.0" standalone="no"?>
<!DOCTYPE svg PUBLIC "-//W3C//DTD SVG 20010904//EN"
 "http://www.w3.org/TR/2001/REC-SVG-20010904/DTD/svg10.dtd">
<svg version="1.0" xmlns="http://www.w3.org/2000/svg"
 width="1024.000000pt" height="1024.000000pt" viewBox="0 0 1024.000000 1024.000000"
 preserveAspectRatio="xMidYMid meet">

<g transform="translate(0.000000,1024.000000) scale(0.100000,-0.100000)"
fill="#000000" stroke="none">
<path d="M4925 10234 c-510 -27 -967 -110 -1408 -258 -621 -208 -1165 -512
-1687 -945 -148 -122 -498 -472 -621 -621 -636 -766 -1026 -1641 -1158 -2600
-33 -243 -44 -413 -44 -690 0 -450 45 -817 153 -1250 182 -728 521 -1391 1029
-2015 209 -256 584 -612 886 -840 678 -511 1547 -862 2395 -969 327 -41 765
-52 1055 -27 514 45 1017 162 1480 346 149 59 503 230 650 315 239 137 522
335 755 529 150 125 489 464 617 616 700 839 1096 1799 1194 2895 16 174 16
626 0 800 -60 671 -223 1266 -506 1839 -192 389 -405 717 -683 1051 -124 148
-474 498 -622 622 -229 190 -516 391 -755 528 -147 85 -501 256 -650 315 -462
183 -980 304 -1470 344 -136 12 -505 20 -610 15z m-445 -4241 c349 -997 637
-1813 640 -1813 3 0 291 802 641 1783 l636 1782 739 0 739 0 11 -360 c33
-1019 53 -2574 54 -4023 l0 -872 -482 2 -483 3 -6 1250 c-4 688 -12 1448 -18
1690 -14 575 -31 1069 -39 1174 l-7 83 -679 -1851 c-373 -1019 -688 -1876
-699 -1906 l-20 -55 -451 0 -451 0 -665 1899 c-366 1045 -668 1897 -671 1893
-7 -7 -22 -413 -39 -1022 -12 -402 -29 -2049 -30 -2717 l0 -443 -481 0 -482 0
6 1658 c6 1736 21 2679 53 3500 l7 162 771 -2 771 -3 635 -1812z"/>
</g>
</svg>
